<svg xmlns="http://www.w3.org/2000/svg" width="134" height="143" viewBox="0 0 134 143" version="1.1"><path fill-opacity="0" d="M0 0L134 0 134 143 0 143 0 0Z"/><path fill="#22bbea" d="M30.8 10.9C50-1.5 75.5-2.7 96 7.2 115.4 16.5 129.8 35.7 133 57 133.8 63.3 132.4 69.6 133.3 75.9 130.5 102.7 109.6 126.3 83.5 132.6 64 137.7 42.1 133.4 26.2 121.1 25.8 128.1 26.1 135.1 26 142.2 17.4 142.9 8.3 138.4 4.3 130.7 1.9 126.2 0.9 121.1 1 116 1.1 104.3 0.9 92.6 1 80.8 10 80.7 19 80.7 28 80.8 28.2 81.1 28.7 81.7 29 82 34 95.1 46.2 105.2 60.1 107.4 79.2 111 99.5 98.5 105.1 80 108.9 68.4 107.1 55.1 100.1 45 89.9 29.4 68.1 22.9 51 30.5 41.1 34.7 33 43 29.1 53 28.7 55 26.4 54.4 25 54.5 17 54.3 8.9 54.8 0.9 54.3 4.3 36.5 15.5 20.4 30.8 10.9Z"/></svg>